<svg width="1600" height="779" viewBox="0 0 1600 779" fill="none" xmlns="http://www.w3.org/2000/svg">
<rect width="1600" height="779" fill="#FFFAFB"/>
<path d="M1358.77 554.353C1358.74 554.231 1358.67 554.118 1358.59 554.021C1358.51 553.923 1358.41 553.843 1358.29 553.786L1354.93 552.104L1354.38 549.92C1353.99 548.346 1353.24 546.88 1352.21 545.632C1351.17 544.383 1349.86 543.384 1348.39 542.708L1348.37 542.615C1347.82 539.906 1346.94 537.279 1345.73 534.797C1345.94 533.355 1345.68 531.883 1344.98 530.604C1344.28 529.325 1343.18 528.31 1341.85 527.713L1341.53 525.425L1345.41 521.538C1345.51 521.442 1345.58 521.326 1345.63 521.198C1345.68 521.07 1345.7 520.933 1345.68 520.798C1345.67 520.662 1345.63 520.53 1345.57 520.412C1345.5 520.294 1345.41 520.191 1345.29 520.112L1339.87 516.24C1339.67 515.69 1339.3 515.214 1338.82 514.871L1338.47 513.437C1338.47 513.44 1338.47 513.443 1338.48 513.445L1338.78 513.649C1339.39 514.052 1340.06 514.332 1340.77 514.473L1344.57 515.232C1344.76 515.271 1344.97 515.246 1345.15 515.16C1345.33 515.074 1345.48 514.932 1345.58 514.755C1345.67 514.577 1345.71 514.374 1345.68 514.175C1345.65 513.976 1345.56 513.792 1345.41 513.65L1344.41 512.65C1343.36 511.6 1342.64 510.26 1342.35 508.801C1342.25 508.305 1342.03 507.842 1341.71 507.452C1341.39 507.063 1340.97 506.76 1340.5 506.57C1340.04 506.381 1339.53 506.312 1339.02 506.368C1338.52 506.424 1338.04 506.605 1337.62 506.894C1336.93 506.238 1336.01 505.874 1335.05 505.875H1334.44C1333.47 505.876 1332.54 506.25 1331.85 506.918C1331.15 507.586 1330.73 508.497 1330.69 509.462L1329.8 512.141C1329.75 512.282 1329.74 512.432 1329.76 512.579C1329.78 512.726 1329.84 512.865 1329.93 512.986C1330.01 513.106 1330.13 513.204 1330.26 513.272C1330.39 513.34 1330.54 513.375 1330.69 513.375H1331.05L1331.72 514.732C1331.8 514.887 1331.92 515.018 1332.07 515.11C1332.22 515.202 1332.39 515.25 1332.56 515.25H1333.55C1333.21 515.525 1332.91 515.852 1332.67 516.218L1331.38 518.141C1331.03 518.677 1330.81 519.296 1330.77 519.937H1329.75C1329.75 519.728 1329.68 519.525 1329.55 519.361C1329.42 519.196 1329.24 519.079 1329.04 519.028L1325.29 518.091C1325.17 518.061 1325.05 518.055 1324.92 518.073C1324.8 518.091 1324.69 518.133 1324.58 518.196C1324.47 518.259 1324.38 518.343 1324.31 518.442C1324.24 518.541 1324.18 518.653 1324.15 518.773L1323.22 522.523C1323.16 522.752 1323.19 522.994 1323.3 523.201C1323.42 523.408 1323.6 523.565 1323.83 523.639L1326.64 524.577C1326.74 524.609 1326.84 524.625 1326.94 524.625H1327.74L1334.03 526.421L1334.44 528.468V530.748L1333.35 531.655C1330.49 534.038 1328.05 536.886 1326.13 540.08C1326.04 540.229 1326 540.401 1326 540.575C1326 540.749 1326.05 540.919 1326.15 541.066L1332.38 550.863L1330.13 554.236C1329.69 554.904 1329.43 555.677 1329.38 556.477C1329.33 557.277 1329.49 558.077 1329.85 558.794C1329.91 558.907 1329.98 559.008 1330.08 559.09C1330.18 559.172 1330.29 559.233 1330.41 559.271C1330.53 559.308 1330.66 559.321 1330.78 559.307C1330.91 559.294 1331.03 559.256 1331.14 559.194L1339.58 554.507C1339.71 554.437 1339.82 554.338 1339.9 554.218C1339.98 554.098 1340.03 553.961 1340.05 553.817C1340.07 553.674 1340.06 553.527 1340.01 553.39C1339.97 553.252 1339.89 553.127 1339.79 553.025L1336.26 549.495L1335.37 543.242C1335.34 543.042 1335.24 542.855 1335.1 542.712L1333.21 540.819L1338.45 538.2L1342.99 546.632C1343.04 546.729 1343.11 546.815 1343.19 546.888L1351.23 554.031L1350.48 557.75C1349.88 558.098 1349.38 558.598 1349.03 559.202C1348.68 559.806 1348.5 560.491 1348.5 561.187C1348.5 561.436 1348.6 561.675 1348.77 561.85C1348.95 562.026 1349.19 562.125 1349.44 562.125H1354.13C1354.29 562.125 1354.45 562.081 1354.6 561.998C1354.74 561.915 1354.86 561.796 1354.94 561.653L1358.69 555.09C1358.75 554.979 1358.79 554.857 1358.81 554.73C1358.82 554.604 1358.81 554.475 1358.77 554.353V554.353ZM1336.14 527.437L1335.96 526.5H1337.25C1337.46 526.5 1337.66 526.43 1337.83 526.301C1337.99 526.173 1338.11 525.993 1338.16 525.79L1339.13 521.91L1339.92 527.437L1336.14 527.437ZM1341.19 523.105L1340.62 519.076L1343.3 520.995L1341.19 523.105ZM1339.99 508.406C1340.13 508.491 1340.24 508.602 1340.33 508.734C1340.42 508.865 1340.48 509.013 1340.52 509.169C1340.78 510.489 1341.32 511.737 1342.11 512.828L1341.14 512.635C1340.67 512.541 1340.22 512.355 1339.82 512.089L1339.52 511.885C1339.22 511.683 1338.95 511.429 1338.74 511.133C1338.91 510.334 1338.89 509.507 1338.69 508.715C1338.67 508.638 1338.65 508.561 1338.63 508.486C1338.82 508.331 1339.05 508.24 1339.3 508.226C1339.54 508.212 1339.78 508.275 1339.99 508.406V508.406ZM1335.05 507.75C1335.47 507.749 1335.88 507.889 1336.21 508.146C1336.54 508.404 1336.77 508.764 1336.87 509.17C1337.02 509.765 1337.01 510.388 1336.85 510.979C1335.76 510.084 1334.83 509 1334.12 507.779C1334.23 507.76 1334.33 507.751 1334.44 507.75H1335.05ZM1335.36 514.129C1335.31 513.916 1335.2 513.725 1335.03 513.587C1334.86 513.45 1334.65 513.375 1334.44 513.375H1333.14L1332.46 512.018C1332.36 511.811 1332.18 511.649 1331.97 511.564L1332.51 509.921C1332.55 509.826 1332.56 509.726 1332.56 509.625C1332.56 509.413 1332.6 509.203 1332.67 509.004C1333.64 510.578 1334.92 511.94 1336.43 513.008L1336.76 514.334C1336.74 514.336 1336.72 514.339 1336.7 514.341C1336.27 514.29 1335.83 514.307 1335.41 514.391L1335.36 514.129ZM1332.94 519.181L1334.04 517.529L1333.64 519.937H1332.65C1332.69 519.667 1332.79 519.409 1332.94 519.181ZM1327.88 522.75H1327.09L1325.25 522.135L1325.74 520.137L1327.88 520.669V520.875C1327.88 521.124 1327.97 521.362 1328.15 521.538C1328.33 521.714 1328.56 521.812 1328.81 521.812H1334.05L1334.71 522.475L1336.04 521.15L1335.44 520.553L1336.02 517.101C1336.06 516.83 1336.21 516.586 1336.42 516.418C1336.64 516.25 1336.91 516.169 1337.18 516.191C1337.46 516.214 1337.71 516.338 1337.9 516.54C1338.08 516.742 1338.19 517.006 1338.19 517.28V517.813C1338.19 517.902 1338.18 517.991 1338.15 518.078L1336.52 524.625H1334.57L1328.13 522.786C1328.05 522.762 1327.96 522.75 1327.88 522.75V522.75ZM1331.25 556.988C1331.2 556.384 1331.36 555.78 1331.69 555.276L1334.14 551.602L1335.19 551.078L1337.58 553.472L1331.25 556.988ZM1338.08 533.555L1336.42 534.444L1337.56 536.548L1331.21 539.724C1331.07 539.79 1330.96 539.887 1330.87 540.007C1330.78 540.127 1330.72 540.266 1330.7 540.412C1330.68 540.559 1330.69 540.709 1330.73 540.851C1330.78 540.992 1330.86 541.12 1330.96 541.225L1333.55 543.817L1334.35 549.401L1333.84 549.658L1328.04 540.553C1329.8 537.737 1332 535.22 1334.55 533.096L1335.98 531.908C1336.08 531.82 1336.17 531.71 1336.22 531.585C1336.28 531.461 1336.31 531.325 1336.31 531.187V529.312H1340.82L1340.9 529.345C1341.94 529.762 1342.81 530.532 1343.34 531.52C1343.88 532.508 1344.05 533.652 1343.83 534.754C1343.79 534.958 1343.82 535.17 1343.91 535.357C1345.12 537.771 1346 540.336 1346.53 542.982L1346.64 543.559C1346.67 543.712 1346.74 543.855 1346.84 543.974C1346.94 544.094 1347.07 544.187 1347.21 544.245C1348.53 544.772 1349.7 545.603 1350.63 546.668C1351.56 547.733 1352.22 549.004 1352.56 550.375L1353.03 552.248L1352.4 552.565L1344.56 545.597L1338.08 533.555ZM1353.58 560.25H1350.59C1350.8 559.844 1351.13 559.514 1351.53 559.312L1351.73 559.213C1351.86 559.15 1351.97 559.057 1352.06 558.944C1352.14 558.831 1352.2 558.699 1352.23 558.559L1353.08 554.321L1354.13 553.798L1356.57 555.02L1353.58 560.25Z" fill="#FF2625" fill-opacity="0.2"/>
<path d="M288.699 572.153L289.527 574.637C289.582 574.802 289.687 574.945 289.828 575.047C289.969 575.148 290.139 575.203 290.312 575.203H292.797C292.971 575.203 293.14 575.148 293.281 575.047C293.422 574.945 293.528 574.802 293.582 574.637L294.222 572.719H295.512L296.152 574.637C296.207 574.802 296.312 574.945 296.453 575.047C296.594 575.148 296.764 575.203 296.938 575.203H299.422C299.596 575.203 299.765 575.148 299.906 575.047C300.047 574.945 300.153 574.802 300.207 574.637L301.036 572.153L301.035 572.152C301.064 572.068 301.078 571.98 301.078 571.891V568.578C301.078 568.358 300.991 568.148 300.836 567.993C300.68 567.837 300.47 567.75 300.25 567.75H297.766V565.266H301.078C301.298 565.266 301.508 565.178 301.664 565.023C301.819 564.868 301.906 564.657 301.906 564.437V560.297C301.906 560.077 301.819 559.867 301.664 559.711C301.508 559.556 301.298 559.469 301.078 559.469H298.594V558.641C298.594 558.421 298.506 558.21 298.351 558.055L296.972 556.676L297.687 549.531H300.566L305.306 559.01C305.92 560.243 306.905 561.253 308.123 561.897L332.986 575.106C333.178 575.208 333.402 575.231 333.61 575.169C333.818 575.108 333.994 574.967 334.099 574.777L338.24 567.324C338.294 567.226 338.328 567.119 338.339 567.007C338.351 566.896 338.34 566.784 338.307 566.677C338.274 566.57 338.219 566.471 338.147 566.386C338.075 566.301 337.986 566.231 337.886 566.181L336.23 565.353C336.105 565.291 335.967 565.261 335.828 565.266C335.688 565.272 335.553 565.312 335.433 565.384L331.778 567.577L314.198 553.993L310.414 543.397C310.808 542.75 311.017 542.007 311.016 541.25V537.109C311.016 536.494 310.844 535.891 310.521 535.368C310.197 534.845 309.735 534.422 309.185 534.147C308.634 533.871 308.018 533.755 307.406 533.81C306.793 533.865 306.208 534.09 305.716 534.459L303.066 536.447C302.963 536.524 302.879 536.624 302.822 536.739C302.764 536.854 302.734 536.981 302.734 537.109V541.25C302.734 541.82 302.852 542.384 303.081 542.906H297.766C296.009 542.908 294.325 543.607 293.083 544.849C291.841 546.091 291.143 547.775 291.141 549.531V558.641C291.141 558.86 291.228 559.071 291.383 559.226L291.626 559.469H289.484C289.265 559.469 289.054 559.556 288.899 559.711C288.744 559.867 288.656 560.077 288.656 560.297V564.437C288.656 564.657 288.744 564.868 288.899 565.023C289.054 565.178 289.265 565.266 289.484 565.266H292.797V567.75H289.484C289.265 567.75 289.054 567.837 288.899 567.993C288.744 568.148 288.656 568.358 288.656 568.578V571.891C288.656 571.98 288.671 572.068 288.699 572.152L288.699 572.153ZM292.2 573.547H290.909L290.633 572.719H292.476L292.2 573.547ZM297.534 573.547L297.258 572.719H299.101L298.825 573.547H297.534ZM300.25 547.875V544.562H304.391V544.56C305.068 545.07 305.886 545.359 306.734 545.388C307.582 545.417 308.418 545.184 309.128 544.721L311.838 552.308L305.267 555.229L302.418 549.531H306.047V547.875H300.25ZM309.359 541.25C309.359 541.909 309.098 542.541 308.632 543.007C308.166 543.473 307.534 543.734 306.875 543.734C306.216 543.734 305.584 543.473 305.118 543.007C304.652 542.541 304.391 541.909 304.391 541.25V540.422H305.219C305.438 540.422 305.649 540.335 305.804 540.179L307.218 538.766H309.359V541.25ZM330.338 571.824L315.586 563.987L318.464 559.382L330.82 568.93L330.338 571.824ZM335.896 567.038L336.372 567.276L333.046 573.262L331.881 572.643L332.473 569.091L335.896 567.038ZM317.147 558.365L314.12 563.208L308.9 560.435C307.987 559.952 307.248 559.194 306.787 558.269L306.008 556.712L312.396 553.872L312.72 554.778C312.773 554.928 312.868 555.058 312.994 555.155L317.147 558.365ZM306.709 535.784C306.955 535.6 307.248 535.487 307.554 535.46C307.861 535.432 308.169 535.49 308.444 535.628C308.719 535.765 308.95 535.977 309.112 536.239C309.274 536.5 309.359 536.802 309.359 537.109H306.875C306.655 537.109 306.445 537.197 306.289 537.352L304.876 538.766H304.391V537.523L306.709 535.784ZM292.797 558.298V549.531C292.798 548.214 293.322 546.951 294.254 546.019C295.185 545.088 296.448 544.564 297.766 544.562H298.594V547.875H296.938C296.732 547.875 296.534 547.951 296.382 548.089C296.23 548.227 296.134 548.416 296.113 548.621L295.285 556.902C295.273 557.024 295.288 557.147 295.329 557.263C295.371 557.378 295.437 557.483 295.524 557.57L296.938 558.984V559.469H293.968L292.797 558.298ZM290.312 561.125H300.25V563.609H290.312V561.125ZM294.453 565.266H296.109V567.75H294.453V565.266ZM290.312 569.406H299.422V571.062H290.312V569.406Z" fill="#FF2625" fill-opacity="0.2"/>
<path fill-rule="evenodd" clip-rule="evenodd" d="M845.007 138.403C844.577 135.896 843.598 133.586 842.512 131.435C842.509 131.43 842.507 131.424 842.503 131.418C842.056 130.532 841.591 129.674 841.14 128.84C839.666 126.121 838.275 123.552 838.167 121.216C837.919 115.9 840.218 113.801 840.309 113.721C840.629 113.459 840.742 113.031 840.604 112.642C840.465 112.254 840.089 112 839.676 112H810.406C809.993 112 809.614 112.251 809.476 112.639C809.337 113.028 809.447 113.453 809.767 113.714C809.865 113.801 812.163 115.9 811.916 121.215C811.807 123.552 810.416 126.12 808.943 128.84C808.491 129.674 808.026 130.532 807.579 131.418C807.576 131.424 807.574 131.429 807.571 131.435C806.417 133.722 805.383 136.189 805.001 138.881C804.996 138.908 804.993 138.935 804.99 138.963C804.854 139.955 804.806 140.978 804.876 142.035C804.994 143.839 805.302 145.88 805.791 148.101C805.907 148.628 806.427 148.96 806.954 148.845C807.481 148.729 807.814 148.208 807.698 147.681C807.231 145.556 806.937 143.613 806.825 141.907C806.803 141.577 806.796 141.251 806.799 140.928L820.683 151.597C821.616 152.314 822.8 152.759 824.065 152.877V160.047H811.612C811.254 159.165 810.547 157.364 809.787 155.1C809.616 154.589 809.062 154.313 808.551 154.485C808.039 154.656 807.764 155.21 807.936 155.721C809.046 159.031 810.02 161.313 810.061 161.408C810.215 161.767 810.568 162 810.959 162H839.124C839.515 162 839.868 161.767 840.022 161.408C840.21 160.968 844.65 150.526 845.207 142.035C845.288 140.798 845.21 139.606 845.016 138.456C845.014 138.438 845.01 138.42 845.007 138.403V138.403ZM813.867 121.306C814.032 117.766 813.171 115.385 812.357 113.953H837.726C836.911 115.385 836.051 117.766 836.216 121.306C836.345 124.089 837.84 126.849 839.422 129.77C839.752 130.378 840.083 130.99 840.405 131.607C836.855 134.21 831.191 135.748 825.041 135.748C818.892 135.748 813.227 134.21 809.677 131.607C810 130.99 810.331 130.378 810.66 129.77C812.243 126.849 813.738 124.089 813.867 121.306V121.306ZM807.015 138.631C807.34 136.798 808 135.059 808.794 133.375C812.688 136.099 818.645 137.701 825.041 137.701C831.439 137.701 837.395 136.099 841.288 133.375C842.016 134.919 842.631 136.508 842.979 138.174L827.41 150.137C825.94 151.266 823.405 151.225 821.874 150.048L807.015 138.631ZM843.258 141.907C842.796 148.946 839.415 157.714 838.471 160.047H826.018V152.796C826.988 152.62 827.876 152.241 828.6 151.686L843.269 140.414C843.293 140.904 843.291 141.401 843.258 141.907V141.907Z" fill="#FF2625" fill-opacity="0.2"/>
<path fill-rule="evenodd" clip-rule="evenodd" d="M825.042 131.201C825.581 131.201 826.018 130.764 826.018 130.225V127.251C826.018 126.712 825.581 126.275 825.042 126.275C824.502 126.275 824.065 126.712 824.065 127.251V130.225C824.065 130.764 824.502 131.201 825.042 131.201Z" fill="#FF2625" fill-opacity="0.2"/>
<path fill-rule="evenodd" clip-rule="evenodd" d="M805.952 122.776C805.57 123.158 805.57 123.776 805.952 124.157C806.142 124.348 806.392 124.443 806.642 124.443C806.892 124.443 807.142 124.348 807.332 124.157C807.332 124.157 810.158 121.331 810.162 121.327C810.382 121.107 810.493 120.78 810.438 120.473C810.403 120.271 810.309 120.09 810.164 119.945L807.332 117.114C806.951 116.733 806.333 116.733 805.952 117.114C805.57 117.495 805.57 118.114 805.952 118.495L807.116 119.659H801.466C800.926 119.659 800.489 120.096 800.489 120.635C800.489 121.175 800.926 121.612 801.466 121.612H807.116L805.952 122.776Z" fill="#FF2625" fill-opacity="0.2"/>
<path fill-rule="evenodd" clip-rule="evenodd" d="M848.616 119.659H842.966L844.13 118.495C844.511 118.113 844.511 117.495 844.13 117.114C843.748 116.732 843.13 116.732 842.749 117.114L839.918 119.945C839.659 120.203 839.549 120.63 839.688 120.974C839.741 121.106 839.818 121.226 839.918 121.326L842.749 124.157C842.94 124.348 843.19 124.443 843.439 124.443C843.689 124.443 843.939 124.348 844.13 124.157C844.511 123.776 844.511 123.158 844.13 122.776L842.966 121.612H848.616C849.155 121.612 849.592 121.175 849.592 120.635C849.592 120.096 849.155 119.659 848.616 119.659Z" fill="#FF2625" fill-opacity="0.2"/>
<path fill-rule="evenodd" clip-rule="evenodd" d="M808.678 151.679C808.678 151.141 808.24 150.702 807.702 150.702C807.164 150.702 806.725 151.141 806.725 151.679C806.725 152.217 807.164 152.656 807.702 152.656C808.24 152.656 808.678 152.217 808.678 151.679Z" fill="#FF2625" fill-opacity="0.2"/>
<rect x="44" y="220" width="103.367" height="217.399" rx="5" fill="#FF2625" fill-opacity="0.04"/>
<rect y="129" width="114.032" height="158.332" rx="5" fill="#FF2625" fill-opacity="0.04"/>
</svg>
