<svg width="1600" height="824" viewBox="0 0 1600 824" fill="none" xmlns="http://www.w3.org/2000/svg">
<g clip-path="url(#clip0_9711_1782)">
<rect width="1600" height="824" fill="#FFFAFB"/>
<rect x="1453" y="177" width="103.367" height="217.399" rx="5" fill="#FF2625" fill-opacity="0.04"/>
<rect x="1486" y="87" width="114.032" height="158.332" rx="5" fill="#FF2625" fill-opacity="0.04"/>
<path d="M135.443 39.0625H143.732L136.335 52.212C136.259 52.3476 136.219 52.5006 136.219 52.6563V56.2813C136.219 56.4003 136.242 56.5181 136.288 56.6281C136.333 56.738 136.4 56.8379 136.484 56.9221C136.568 57.0062 136.668 57.073 136.778 57.1185C136.888 57.1641 137.006 57.1875 137.125 57.1875H157.969C158.088 57.1875 158.206 57.1641 158.316 57.1185C158.426 57.073 158.525 57.0062 158.61 56.9221C158.694 56.8379 158.76 56.738 158.806 56.6281C158.852 56.5181 158.875 56.4003 158.875 56.2813V54.4688C158.875 54.309 158.833 54.1521 158.753 54.0139C158.672 53.8757 158.557 53.7612 158.418 53.6819L152.852 50.5011L159.741 38.1004C160.301 37.0939 160.594 35.9615 160.594 34.8101C160.594 33.6587 160.301 32.5262 159.742 31.5196C159.183 30.513 158.377 29.6653 157.4 29.0567C156.422 28.4481 155.306 28.0985 154.156 28.041L140.285 27.3475L142.22 24.4437L155.369 20.9375H165.219C165.415 20.9375 165.606 20.8739 165.762 20.7562L169.387 18.0375C169.5 17.9531 169.591 17.8436 169.654 17.7178C169.717 17.592 169.75 17.4532 169.75 17.3125V15.5C169.75 15.381 169.727 15.2631 169.681 15.1532C169.635 15.0432 169.569 14.9433 169.485 14.8592C169.4 14.775 169.301 14.7083 169.191 14.6627C169.081 14.6172 168.963 14.5937 168.844 14.5938H146.185C146.776 13.8105 147.095 12.856 147.094 11.875V6.4375C147.094 5.7643 146.906 5.10439 146.552 4.53173C146.198 3.95907 145.692 3.49628 145.09 3.19521C144.488 2.89414 143.814 2.76669 143.143 2.82715C142.473 2.8876 141.832 3.13357 141.294 3.53749L138.394 5.71251C138.281 5.79692 138.19 5.90638 138.127 6.03221C138.064 6.15805 138.031 6.29681 138.031 6.4375V11.875C138.03 12.856 138.349 13.8105 138.94 14.5938H137.212C136.479 14.5938 135.758 14.7715 135.109 15.1114C134.46 15.4514 133.903 15.9435 133.486 16.5458L127.885 24.6372C126.93 26.0165 126.37 27.6308 126.267 29.3052C126.164 30.9796 126.521 32.6502 127.3 34.1362C128.079 35.6221 129.249 36.8667 130.684 37.7351C132.12 38.6035 133.765 39.0625 135.443 39.0625V39.0625ZM146.064 37.6988C145.984 37.5622 145.869 37.4489 145.732 37.3702C145.595 37.2914 145.439 37.25 145.281 37.25H139.426L142.324 30.728L150.326 32.0617C150.954 32.1662 151.544 32.4297 152.04 32.827C152.537 33.2242 152.923 33.742 153.163 34.3311C153.403 34.9201 153.487 35.5607 153.409 36.1918C153.331 36.8229 153.093 37.4235 152.717 37.9363L143.838 50.0439L138.946 51.2668L146.071 38.6005C146.149 38.4626 146.189 38.3068 146.187 38.1486C146.186 37.9904 146.143 37.8353 146.064 37.6988V37.6988ZM149.813 55.375H138.031V53.3638L144.242 51.8113L149.813 54.9947V55.375ZM157.063 54.9947V55.375H151.625V54.4688C151.625 54.309 151.583 54.1521 151.503 54.0139C151.422 53.8757 151.307 53.7612 151.168 53.6819L149.082 52.4896L151.503 51.818L157.063 54.9947ZM157.948 32.0557C158.456 32.8135 158.744 33.697 158.781 34.6084C158.818 35.5199 158.602 36.4238 158.157 37.2201L151.017 50.0719L146.866 51.2233L145.706 50.5608L154.178 39.0081C154.737 38.2457 155.092 37.3528 155.208 36.4144C155.324 35.4761 155.198 34.5237 154.842 33.6479C154.485 32.7722 153.911 32.0023 153.172 31.4116C152.434 30.821 151.557 30.4293 150.624 30.2739L145.528 29.4244L154.065 29.8513C154.839 29.8916 155.593 30.1118 156.267 30.4945C156.941 30.8771 157.517 31.4117 157.948 32.0557V32.0557ZM167.938 16.8594L164.917 19.125H162.5L163.95 18.0375C164.063 17.9531 164.154 17.8436 164.217 17.7178C164.28 17.592 164.313 17.4532 164.313 17.3125V16.4063H167.938V16.8594ZM162.5 16.4063V16.8594L159.479 19.125H155.25C155.171 19.125 155.093 19.1353 155.016 19.1556L147.094 21.2683V16.4063H162.5ZM142.381 4.98747C142.651 4.78552 142.971 4.66254 143.306 4.63232C143.641 4.6021 143.978 4.66583 144.279 4.81636C144.58 4.9669 144.834 5.19829 145.011 5.48462C145.188 5.77095 145.281 6.1009 145.281 6.4375V7.34375H142.563C142.443 7.34375 142.326 7.36719 142.216 7.41273C142.106 7.45828 142.006 7.52504 141.922 7.6092L140.375 9.15625H139.844V6.89063L142.381 4.98747ZM139.844 11.875V10.9688H140.75C140.869 10.9688 140.987 10.9453 141.097 10.8998C141.207 10.8542 141.307 10.7875 141.391 10.7033L142.938 9.15625H145.281V11.875C145.281 12.5961 144.995 13.2876 144.485 13.7974C143.975 14.3073 143.284 14.5938 142.563 14.5938C141.841 14.5938 141.15 14.3073 140.64 13.7974C140.13 13.2876 139.844 12.5961 139.844 11.875ZM134.977 17.5775C135.227 17.2161 135.561 16.9208 135.95 16.7168C136.339 16.5129 136.772 16.4063 137.212 16.4063H145.281V21.7517L141.423 22.7806C141.21 22.8375 141.025 22.9701 140.902 23.1536L137.64 28.0476L129.305 25.7744C129.328 25.7393 129.351 25.7037 129.375 25.6689L134.977 17.5775ZM128.477 27.4275L137.793 29.9681L137.793 29.967C137.822 29.9754 137.852 29.9823 137.882 29.9877L140.478 30.4203L137.442 37.25H135.443C134.264 37.2495 133.102 36.9667 132.055 36.4253C131.008 35.8838 130.105 35.0994 129.423 34.1377C128.741 33.176 128.299 32.065 128.135 30.8975C127.97 29.7301 128.088 28.5402 128.477 27.4275H128.477Z" fill="#FF2625" fill-opacity="0.2"/>
<path d="M1222.93 80.5858L1218.5 78.3728V65.4688C1218.5 63.6377 1217.77 61.8823 1216.47 60.5876C1215.18 59.2929 1213.42 58.5646 1211.59 58.5625H1197.81L1197.78 58.5149C1197.36 57.8941 1196.83 57.3665 1196.2 56.966C1195.57 56.5654 1194.86 56.3007 1194.13 56.1889V39.0625C1194.12 38.4163 1193.87 37.7967 1193.41 37.3397C1192.95 36.8828 1192.33 36.6257 1191.69 36.625H1190.06C1189.89 36.625 1189.73 36.6787 1189.59 36.7784C1189.45 36.8781 1189.35 37.0188 1189.29 37.1806L1188.78 38.7293L1187.99 38.3358C1187.8 38.2394 1187.57 38.2236 1187.37 38.2917C1187.16 38.3599 1186.99 38.5064 1186.9 38.6991L1186.09 40.3241C1186.02 40.4523 1185.99 40.595 1186 40.738C1186.01 40.8809 1186.06 41.019 1186.14 41.1382L1187.59 43.3242L1185.55 59.6845C1184.8 58.964 1183.79 58.562 1182.75 58.5625H1179.5C1178.65 58.562 1177.83 58.8252 1177.14 59.3155C1176.45 59.8058 1175.94 60.4987 1175.66 61.2975C1175.38 62.0964 1175.36 62.9614 1175.6 63.772C1175.84 64.5825 1176.33 65.2982 1176.99 65.8193L1176.54 66.7203C1176.34 67.1201 1176.24 67.5621 1176.25 68.009C1176.26 68.4559 1176.37 68.8946 1176.58 69.2879C1176.8 69.6812 1177.1 70.0176 1177.47 70.2687C1177.84 70.5197 1178.26 70.6781 1178.71 70.7303C1177.74 72.1335 1177.18 73.7737 1177.08 75.4738C1176.98 77.1739 1177.34 78.8692 1178.14 80.3768C1178.93 81.8843 1180.12 83.1467 1181.58 84.0276C1183.03 84.9085 1184.7 85.3744 1186.41 85.375H1191.28C1193.28 85.3756 1195.22 84.736 1196.83 83.55C1198.44 82.3641 1199.62 80.6942 1200.21 78.7856C1200.8 76.8769 1200.76 74.8299 1200.1 72.945C1199.44 71.0601 1198.19 69.4365 1196.54 68.3125H1210.51L1212.81 81.3834V83.75C1212.81 83.9655 1212.9 84.1721 1213.05 84.3245C1213.2 84.4769 1213.41 84.5625 1213.62 84.5625H1222.56C1222.78 84.5625 1222.98 84.4769 1223.14 84.3245C1223.29 84.1721 1223.37 83.9655 1223.38 83.75V81.3125C1223.38 81.1616 1223.33 81.0137 1223.25 80.8854C1223.17 80.757 1223.06 80.6533 1222.93 80.5858V80.5858ZM1207.94 60.1875V66.6875H1200.63V60.1875H1207.94ZM1187.99 40.1526L1188.89 40.6017C1188.99 40.6538 1189.1 40.6829 1189.22 40.687C1189.34 40.6911 1189.45 40.6702 1189.56 40.6257C1189.67 40.5811 1189.77 40.514 1189.84 40.4288C1189.92 40.3436 1189.98 40.2424 1190.02 40.1319L1190.65 38.25H1191.69C1191.9 38.2502 1192.11 38.3359 1192.26 38.4882C1192.41 38.6406 1192.5 38.8471 1192.5 39.0625V52.875H1188.04L1189.24 43.2258C1189.27 43.0323 1189.22 42.8365 1189.11 42.6743L1187.75 40.6291L1187.99 40.1526ZM1180.31 60.1875H1182.75C1183.4 60.1875 1184.02 60.4443 1184.47 60.9014C1184.93 61.3585 1185.19 61.9785 1185.19 62.625C1185.19 63.2715 1184.93 63.8915 1184.47 64.3486C1184.02 64.8057 1183.4 65.0625 1182.75 65.0625H1181.94V64.25C1181.94 64.0345 1181.85 63.8279 1181.7 63.6755L1180.31 62.2884V60.1875ZM1178.69 60.3273V62.625C1178.69 62.8405 1178.77 63.0471 1178.93 63.1995L1180.31 64.5866V65.0625H1179.5C1178.93 65.0626 1178.37 64.8593 1177.93 64.4887C1177.49 64.1182 1177.19 63.6041 1177.1 63.0374C1177 62.4707 1177.11 61.8879 1177.4 61.3919C1177.69 60.896 1178.15 60.5189 1178.69 60.3273V60.3273ZM1177.88 67.9655C1177.88 67.7855 1177.92 67.6081 1178 67.447L1178.45 66.5482C1178.79 66.6407 1179.14 66.6875 1179.5 66.6875H1183.56C1184.21 66.6882 1184.83 66.9453 1185.29 67.4022C1185.74 67.8592 1186 68.4788 1186 69.125V70.6592C1184.5 69.6544 1182.73 69.1202 1180.93 69.125H1179.03C1178.73 69.1246 1178.43 69.0024 1178.21 68.785C1178 68.5676 1177.88 68.2729 1177.88 67.9655V67.9655ZM1199 76.0312C1199 78.0777 1198.18 80.0396 1196.74 81.4867C1195.29 82.9337 1193.33 83.7477 1191.28 83.75H1186.41C1184.9 83.7502 1183.43 83.31 1182.17 82.4834C1180.91 81.6569 1179.92 80.4802 1179.32 79.0984C1178.72 77.7165 1178.54 76.1898 1178.8 74.7064C1179.06 73.2231 1179.75 71.8478 1180.78 70.75H1180.93C1181.91 70.7473 1182.89 70.9403 1183.8 71.3179C1184.71 71.6954 1185.54 72.25 1186.24 72.9495C1186.35 73.0632 1186.5 73.1405 1186.65 73.1719C1186.81 73.2032 1186.97 73.1872 1187.12 73.1257C1187.27 73.0642 1187.4 72.96 1187.49 72.8264C1187.58 72.6928 1187.63 72.5357 1187.63 72.375V69.125C1187.63 68.6963 1187.56 68.2703 1187.42 67.863C1188.34 68.1612 1189.3 68.3129 1190.26 68.3125H1191.28C1193.33 68.3148 1195.29 69.1288 1196.74 70.5758C1198.18 72.0229 1199 73.9848 1199 76.0312V76.0312ZM1190.26 66.6875C1188.67 66.6916 1187.13 66.189 1185.84 65.2529C1186.46 64.5368 1186.8 63.6299 1186.81 62.6887L1187.83 54.5H1192.5V61H1194.13V57.8405C1195.07 58.0487 1195.89 58.6135 1196.43 59.4164L1196.7 59.8257C1196.77 59.937 1196.87 60.0283 1196.99 60.0914C1197.11 60.1545 1197.24 60.1875 1197.38 60.1875H1199V66.6875H1190.26ZM1211.19 66.6875H1209.56V60.1875H1211.59C1212.99 60.1891 1214.34 60.746 1215.33 61.7361C1216.32 62.7262 1216.87 64.0686 1216.88 65.4688V78.415L1214.22 80.0081L1211.99 67.3588C1211.95 67.1707 1211.86 67.0003 1211.71 66.8775C1211.56 66.7548 1211.38 66.6875 1211.19 66.6875V66.6875ZM1221.75 82.9375H1214.44V81.7725L1217.72 79.8012L1221.75 81.8147V82.9375Z" fill="#FF2625" fill-opacity="0.2"/>
</g>
<defs>
<clipPath id="clip0_9711_1782">
<rect width="1600" height="824" fill="white"/>
</clipPath>
</defs>
</svg>
