<svg width="220" height="220" viewBox="0 0 220 220" fill="none" xmlns="http://www.w3.org/2000/svg">
<path d="M162.865 109.615C151.895 103.91 138.502 105.889 129.651 114.524L110 133.696L90.3486 114.524C81.4976 105.889 68.1044 103.91 57.1343 109.615C40.1882 118.429 36.4552 141.047 49.6702 154.838L110 217.8L170.33 154.838C183.545 141.046 179.812 118.429 162.865 109.615Z" fill="#83E1E5"/>
<path d="M150.497 63.9655H122.904C115.777 63.9655 110 69.7427 110 76.8693C110 69.7427 104.223 63.9655 97.0963 63.9655H69.503C62.3763 63.9655 56.5991 69.7427 56.5991 76.8693V109.914C56.7791 109.816 56.9516 109.71 57.1346 109.615C68.1051 103.91 81.4983 105.889 90.3489 114.524L91.9716 116.107L110 133.696L128.028 116.107C128.029 116.107 128.029 116.106 128.03 116.106L129.651 114.524C138.502 105.889 151.896 103.91 162.866 109.615C163.049 109.71 163.221 109.816 163.401 109.915V76.8698C163.401 69.7426 157.624 63.9655 150.497 63.9655Z" fill="#FDDF7F"/>
<path d="M83.2995 63.9659C94.4122 63.9659 103.421 54.9573 103.421 43.8447C103.421 32.732 94.4122 23.7235 83.2995 23.7235C72.1869 23.7235 63.1783 32.732 63.1783 43.8447C63.1783 54.9573 72.1869 63.9659 83.2995 63.9659Z" fill="#FDDF7F"/>
<path d="M136.7 63.9659C147.813 63.9659 156.822 54.9573 156.822 43.8447C156.822 32.732 147.813 23.7235 136.7 23.7235C125.588 23.7235 116.579 32.732 116.579 43.8447C116.579 54.9573 125.588 63.9659 136.7 63.9659Z" fill="#FDDF7F"/>
<path d="M102.971 7.029C102.971 5.81416 103.956 4.829 105.171 4.829H107.8V2.2C107.8 0.98516 108.785 0 110 0C111.215 0 112.2 0.98516 112.2 2.2V4.829H114.829C116.044 4.829 117.029 5.81416 117.029 7.029C117.029 8.24384 116.044 9.229 114.829 9.229H112.2V11.8576C112.2 13.0724 111.215 14.0576 110 14.0576C108.785 14.0576 107.8 13.0724 107.8 11.8576V9.229H105.171C103.956 9.229 102.971 8.24384 102.971 7.029ZM40.7944 85.7987V83.1701H43.4234C44.6383 83.1701 45.6234 82.185 45.6234 80.9701C45.6234 79.7553 44.6383 78.7701 43.4234 78.7701H40.7944V76.1411C40.7944 74.9263 39.8093 73.9411 38.5944 73.9411C37.3796 73.9411 36.3944 74.9263 36.3944 76.1411V78.7701H33.7654C32.5506 78.7701 31.5654 79.7553 31.5654 80.9701C31.5654 82.185 32.5506 83.1701 33.7654 83.1701H36.3944V85.7987C36.3944 87.0135 37.3796 87.9987 38.5944 87.9987C39.8093 87.9987 40.7944 87.014 40.7944 85.7987ZM186.234 78.7701H183.605V76.1411C183.605 74.9263 182.621 73.9411 181.405 73.9411C180.19 73.9411 179.205 74.9263 179.205 76.1411V78.7701H176.576C175.361 78.7701 174.376 79.7553 174.376 80.9701C174.376 82.185 175.361 83.1701 176.576 83.1701H179.205V85.7987C179.205 87.0135 180.19 87.9987 181.405 87.9987C182.621 87.9987 183.605 87.0135 183.605 85.7987V83.1701H186.234C187.45 83.1701 188.434 82.185 188.434 80.9701C188.434 79.7553 187.449 78.7701 186.234 78.7701ZM180.079 130.002C181.675 139.674 178.701 149.282 171.918 156.36L111.588 219.322C111.174 219.755 110.6 220 110 220C109.4 220 108.826 219.755 108.411 219.322L48.0817 156.36C41.2991 149.282 38.3247 139.674 39.921 130.002C41.5174 120.329 47.4213 112.187 56.1188 107.663C67.9587 101.505 82.3322 103.63 91.8846 112.949L110 130.622L128.115 112.949C137.667 103.629 152.04 101.505 163.88 107.663C172.578 112.187 178.482 120.329 180.079 130.002ZM175.737 130.718C174.369 122.426 169.307 115.445 161.85 111.567C151.698 106.287 139.377 108.109 131.187 116.099L113.13 133.715L123.264 143.849C124.123 144.708 124.123 146.101 123.264 146.96C122.835 147.389 122.271 147.605 121.709 147.605C121.146 147.605 120.582 147.39 120.153 146.96L108.451 135.258L88.8121 116.099C83.7455 111.156 77.0958 108.574 70.3585 108.574C66.2053 108.574 62.0205 109.554 58.1494 111.567C50.6927 115.445 45.6314 122.426 44.2625 130.718C42.8941 139.011 45.4439 147.248 51.259 153.316L110 214.62L168.741 153.316C174.556 147.247 177.106 139.011 175.737 130.718ZM130.432 151.016C129.572 150.157 128.18 150.157 127.32 151.016C126.462 151.876 126.462 153.269 127.321 154.128L128.475 155.282C128.905 155.712 129.468 155.926 130.031 155.926C130.594 155.926 131.157 155.712 131.587 155.282C132.446 154.422 132.446 153.029 131.586 152.17L130.432 151.016ZM54.3988 98.4223V76.8698C54.3988 68.5414 61.1744 61.7659 69.5027 61.7659H70.0096C64.5333 57.6941 60.9786 51.1773 60.9786 43.8447C60.9786 31.537 70.9916 21.5235 83.2998 21.5235C95.6074 21.5235 105.621 31.5366 105.621 43.8447C105.621 51.1773 102.065 57.6941 96.5895 61.7659H97.096C102.554 61.7659 107.346 64.6765 110 69.0268C112.654 64.6765 117.446 61.7659 122.904 61.7659H123.41C117.934 57.6941 114.379 51.1773 114.379 43.8447C114.379 31.537 124.392 21.5235 136.7 21.5235C149.008 21.5235 159.021 31.5366 159.021 43.8447C159.021 51.1773 155.465 57.6941 149.99 61.7659H150.497C158.825 61.7659 165.6 68.5414 165.6 76.8698V98.4223C165.6 99.6371 164.616 100.622 163.4 100.622C162.185 100.622 161.2 99.6371 161.2 98.4223V76.8698C161.2 70.9676 156.399 66.1659 150.497 66.1659H122.903C117.001 66.1659 112.199 70.9676 112.199 76.8698V108.123C112.199 109.338 111.215 110.323 109.999 110.323C108.785 110.323 107.799 109.338 107.799 108.123V76.8698C107.799 70.9676 102.998 66.1659 97.0955 66.1659H69.5022C63.6001 66.1659 58.7984 70.9676 58.7984 76.8698V98.4223C58.7984 99.6371 57.8132 100.622 56.5984 100.622C55.3835 100.622 54.3988 99.6371 54.3988 98.4223ZM136.7 61.7654C146.582 61.7654 154.621 53.7262 154.621 43.8442C154.621 33.9623 146.582 25.923 136.7 25.923C126.819 25.923 118.78 33.9623 118.78 43.8442C118.78 53.7262 126.819 61.7654 136.7 61.7654ZM83.2993 61.7654C93.1808 61.7654 101.22 53.7262 101.22 43.8442C101.22 33.9623 93.1808 25.923 83.2993 25.923C73.4178 25.923 65.3781 33.9623 65.3781 43.8442C65.3781 53.7262 73.4178 61.7654 83.2993 61.7654ZM110 114.583C108.785 114.583 107.8 115.569 107.8 116.783V118.355C107.8 119.57 108.785 120.555 110 120.555C111.215 120.555 112.2 119.57 112.2 118.355V116.783C112.2 115.568 111.215 114.583 110 114.583Z" fill="#1C1D21"/>
</svg>
