<svg width="220" height="220" viewBox="0 0 220 220" fill="none" xmlns="http://www.w3.org/2000/svg">
<g clip-path="url(#clip0_101_522)">
<path d="M109.999 185.382C113.019 185.382 115.468 182.934 115.468 179.914C115.468 176.894 113.019 174.445 109.999 174.445C106.979 174.445 104.531 176.894 104.531 179.914C104.531 182.934 106.979 185.382 109.999 185.382Z" fill="#AAB1BA"/>
<path d="M110 98.6018C125.72 98.6018 138.463 85.8586 138.463 70.1391C138.463 54.4196 125.72 41.6764 110 41.6764C94.2807 41.6764 81.5375 54.4196 81.5375 70.1391C81.5375 85.8586 94.2807 98.6018 110 98.6018Z" fill="#FDDF7F"/>
<path d="M110 41.6764C94.2808 41.6764 81.5375 54.4196 81.5375 70.1391H138.463C138.463 54.4196 125.72 41.6764 110 41.6764Z" fill="#AAB1BA"/>
<path d="M110 41.6768C115.378 41.6768 119.737 37.3173 119.737 31.9396C119.737 26.5619 115.378 22.2024 110 22.2024C104.622 22.2024 100.263 26.5619 100.263 31.9396C100.263 37.3173 104.622 41.6768 110 41.6768Z" fill="#AAB1BA"/>
<path d="M133.081 137.621H86.919C80.7326 137.621 75.7174 132.606 75.7174 126.419V98.6018H144.283V126.419C144.283 132.606 139.268 137.621 133.081 137.621Z" fill="#83E1E5"/>
<path d="M124.75 115.926H95.2507C90.0402 115.926 85.8162 111.702 85.8162 106.492V98.6018H134.184V106.492C134.184 111.702 129.96 115.926 124.75 115.926Z" fill="#FDDF7F"/>
<path d="M77.0912 184.062H55.1418C46.4492 184.062 39.4026 191.109 39.4026 199.801V202.061C39.4026 210.753 46.4492 217.8 55.1418 217.8H89.7293V195.496C84.7498 192.615 80.4418 188.709 77.0912 184.062Z" fill="#AAB1BA"/>
<path d="M164.858 184.062H142.908C139.558 188.709 135.25 192.615 130.27 195.496V217.8H164.857C173.55 217.8 180.596 210.753 180.596 202.061V199.801C180.597 191.109 173.55 184.062 164.858 184.062Z" fill="#AAB1BA"/>
<path d="M199.956 143.455C199.69 140.522 197.101 138.342 194.156 138.342H162.013C159.615 138.342 157.671 136.398 157.671 134V110.193C157.671 103.791 152.481 98.6009 146.079 98.6009H144.282V126.419C144.282 132.35 139.668 137.192 133.836 137.582C133.587 137.604 133.337 137.62 133.083 137.621C133.082 137.621 133.081 137.621 133.081 137.621H86.9188C86.9179 137.621 86.9175 137.621 86.9166 137.621C86.6623 137.621 86.4119 137.604 86.1633 137.582C80.3307 137.192 75.7173 132.35 75.7173 126.419V98.6009H73.9203C67.5183 98.6009 62.3285 103.791 62.3285 110.193V134C62.3285 136.398 60.3846 138.342 57.9866 138.342H25.8437C22.8984 138.342 20.3094 140.522 20.0437 143.455C19.7418 146.788 22.3449 149.594 25.6154 149.618L38.9808 149.686C44.388 149.706 49.7454 150.72 54.7852 152.68L69.4961 158.401C69.4961 158.398 69.4966 158.396 69.4966 158.393C69.4649 159.051 69.446 159.712 69.446 160.377C69.446 175.391 77.6049 188.497 89.7295 195.508V217.8H130.271V195.507C142.395 188.496 150.553 175.39 150.553 160.377C150.553 159.712 150.534 159.051 150.502 158.393C150.502 158.396 150.503 158.399 150.503 158.401L165.214 152.68C170.253 150.721 175.611 149.706 181.018 149.686L194.384 149.618C197.655 149.594 200.258 146.788 199.956 143.455ZM110 200.931C109.966 200.931 109.931 200.93 109.897 200.93C109.931 200.93 109.965 200.931 110 200.931C110.035 200.931 110.07 200.93 110.105 200.93C110.07 200.93 110.035 200.931 110 200.931Z" fill="#FDDF7F"/>
<path d="M103.033 6.96652C103.033 5.75124 104.019 4.76652 105.233 4.76652H107.8V2.2C107.8 0.98472 108.785 0 110 0C111.215 0 112.2 0.98472 112.2 2.2V4.76652H114.767C115.981 4.76652 116.967 5.75124 116.967 6.96652C116.967 8.1818 115.981 9.16652 114.767 9.16652H112.2V11.733C112.2 12.9483 111.215 13.933 110 13.933C108.785 13.933 107.8 12.9483 107.8 11.733V9.16652H105.233C104.019 9.16652 103.033 8.1818 103.033 6.96652ZM28.0619 180.708C26.847 180.708 25.8619 181.693 25.8619 182.908V185.537H23.2329C22.018 185.537 21.0329 186.522 21.0329 187.737C21.0329 188.953 22.018 189.937 23.2329 189.937H25.8619V192.566C25.8619 193.782 26.847 194.766 28.0619 194.766C29.2767 194.766 30.2619 193.782 30.2619 192.566V189.937H32.8904C34.1053 189.937 35.0904 188.953 35.0904 187.737C35.0904 186.522 34.1053 185.537 32.8904 185.537H30.2619V182.908C30.2619 181.693 29.2772 180.708 28.0619 180.708ZM191.938 194.766C193.153 194.766 194.138 193.781 194.138 192.566V189.937H196.767C197.982 189.937 198.967 188.952 198.967 187.737C198.967 186.522 197.982 185.537 196.767 185.537H194.138V182.908C194.138 181.693 193.153 180.708 191.938 180.708C190.723 180.708 189.738 181.693 189.738 182.908V185.537H187.11C185.895 185.537 184.91 186.522 184.91 187.737C184.91 188.952 185.895 189.937 187.11 189.937H189.738V192.566C189.738 193.781 190.723 194.766 191.938 194.766ZM102.332 179.914C102.332 175.686 105.772 172.246 110 172.246C114.228 172.246 117.668 175.686 117.668 179.914C117.668 184.143 114.228 187.583 110 187.583C105.772 187.583 102.332 184.142 102.332 179.914ZM106.732 179.914C106.732 181.716 108.198 183.183 110 183.183C111.802 183.183 113.268 181.716 113.268 179.914C113.268 178.112 111.802 176.646 110 176.646C108.198 176.646 106.732 178.112 106.732 179.914ZM5.79348 215.6H2.2C0.98516 215.6 0 216.585 0 217.8C0 219.015 0.98516 220 2.2 220H5.79348C7.00832 220 7.99348 219.015 7.99348 217.8C7.99348 216.585 7.00832 215.6 5.79348 215.6ZM207.423 217.8C207.423 219.015 206.438 220 205.223 220H164.858H157.612H62.3885H55.1421H14.7765C13.5617 220 12.5765 219.015 12.5765 217.8C12.5765 216.585 13.5617 215.6 14.7765 215.6H43.3928C39.6048 212.308 37.2024 207.461 37.2024 202.061V199.801C37.2024 189.91 45.25 181.862 55.1417 181.862H73.0492C69.362 175.545 67.2461 168.204 67.2461 160.377C67.2461 160.215 67.2549 160.053 67.2566 159.891L53.988 154.731C49.1819 152.861 44.1302 151.904 38.973 151.886L25.6045 151.818C23.4137 151.802 21.3184 150.863 19.8502 149.244C18.3828 147.625 17.655 145.442 17.853 143.256C18.2142 139.267 21.7241 136.142 25.8438 136.142H29.9297C29.4589 135.149 29.1874 134.043 29.1874 132.873C29.1874 128.645 32.6273 125.205 36.8557 125.205C41.0841 125.205 44.524 128.645 44.524 132.873C44.524 134.043 44.253 135.149 43.7818 136.142H57.9867C59.1677 136.142 60.1286 135.181 60.1286 134V110.193C60.1286 102.589 66.3155 96.4014 73.9204 96.4014H75.717H85.8158H94.1908C85.2966 91.0276 79.3368 81.2667 79.3368 70.1386C79.3368 56.0723 88.8611 44.1962 101.797 40.5992C99.4994 38.4221 98.0619 35.3461 98.0619 31.9387C98.0619 25.3563 103.417 20.0015 109.999 20.0015C116.582 20.0015 121.936 25.3563 121.936 31.9387C121.936 35.3461 120.499 38.4221 118.202 40.5992C131.137 44.1962 140.661 56.0723 140.661 70.1386C140.661 81.2667 134.702 91.0272 125.807 96.4014H134.182H144.281H146.078C153.683 96.4014 159.87 102.589 159.87 110.193V134C159.87 135.182 160.831 136.142 162.012 136.142H176.216C175.746 135.149 175.474 134.043 175.474 132.873C175.474 128.645 178.914 125.205 183.143 125.205C187.371 125.205 190.811 128.645 190.811 132.873C190.811 134.043 190.54 135.149 190.069 136.142H194.154C198.274 136.142 201.784 139.267 202.145 143.256C202.343 145.443 201.615 147.625 200.148 149.244C198.68 150.863 196.585 151.801 194.399 151.818L181.028 151.886C175.868 151.904 170.816 152.861 166.01 154.731L152.741 159.891C152.743 160.054 152.752 160.215 152.752 160.377C152.752 168.204 150.636 175.545 146.949 181.862H164.856C174.748 181.862 182.795 189.909 182.795 199.801V202.061C182.795 207.461 180.393 212.308 176.605 215.6H205.221C206.438 215.6 207.423 216.585 207.423 217.8ZM179.876 132.873C179.876 134.676 181.342 136.142 183.144 136.142C184.947 136.142 186.413 134.676 186.413 132.873C186.413 131.071 184.947 129.605 183.144 129.605C181.342 129.605 179.876 131.072 179.876 132.873ZM143.892 134.326C148.581 140.424 151.525 147.684 152.44 155.288L164.417 150.63C169.728 148.565 175.311 147.506 181.011 147.486L194.373 147.419C195.34 147.411 196.236 147.01 196.89 146.289C197.543 145.569 197.853 144.633 197.765 143.654C197.607 141.909 196.022 140.543 194.156 140.543H162.013C158.406 140.543 155.471 137.608 155.471 134.001V110.194C155.471 105.152 151.474 101.036 146.483 100.823V126.42C146.483 129.375 145.519 132.108 143.892 134.326ZM102.463 31.9396C102.463 36.0954 105.844 39.4768 110 39.4768C114.156 39.4768 117.537 36.0954 117.537 31.9396C117.537 27.7838 114.156 24.4024 110 24.4024C105.844 24.4024 102.463 27.7838 102.463 31.9396ZM83.8367 67.9391H107.8V58.469C107.8 57.2537 108.785 56.269 110 56.269C111.215 56.269 112.2 57.2537 112.2 58.469V67.9391H136.163C135.041 54.4843 123.739 43.8768 110 43.8768C96.2606 43.8768 84.9587 54.4843 83.8367 67.9391ZM110 96.4018C123.739 96.4018 135.041 85.7943 136.163 72.3391H83.8367C84.9587 85.7938 96.2606 96.4018 110 96.4018ZM88.0163 106.491C88.0163 110.48 91.2617 113.726 95.2508 113.726H124.75C128.739 113.726 131.984 110.48 131.984 106.491V100.801H88.0163V106.491ZM33.5874 132.873C33.5874 134.676 35.0535 136.142 36.8557 136.142C38.658 136.142 40.124 134.676 40.124 132.873C40.124 131.071 38.658 129.605 36.8557 129.605C35.0535 129.605 33.5874 131.072 33.5874 132.873ZM67.5598 155.288C68.4754 147.684 71.4186 140.424 76.1072 134.326C74.4806 132.108 73.517 129.375 73.517 126.419V122.162C73.517 120.946 74.5021 119.962 75.717 119.962C76.9318 119.962 77.917 120.946 77.917 122.162V126.419C77.917 128.897 78.9241 131.145 80.5499 132.774C80.6001 132.824 80.6546 132.868 80.7057 132.917C82.0899 134.24 83.8913 135.129 85.8937 135.358C85.9307 135.362 85.9672 135.37 86.0042 135.374C86.3051 135.404 86.61 135.42 86.9185 135.42H107.8V125.05C107.8 123.835 108.785 122.85 110 122.85C111.215 122.85 112.2 123.835 112.2 125.05V135.42H133.081C133.39 135.42 133.695 135.404 133.995 135.374C134.033 135.37 134.069 135.362 134.106 135.358C136.108 135.129 137.909 134.24 139.294 132.917C139.345 132.868 139.399 132.824 139.45 132.774C141.076 131.145 142.083 128.897 142.083 126.419V100.801H136.384V106.491C136.384 112.907 131.164 118.126 124.749 118.126H95.2503C88.8351 118.126 83.6158 112.907 83.6158 106.491V100.801H77.917V106.315C77.917 107.53 76.9318 108.515 75.717 108.515C74.5021 108.515 73.517 107.53 73.517 106.315V100.822C68.526 101.035 64.5286 105.15 64.5286 110.193V134C64.5286 137.607 61.5943 140.542 57.9867 140.542H25.8438C23.9782 140.542 22.3929 141.908 22.235 143.653C22.1461 144.632 22.4572 145.568 23.1101 146.288C23.764 147.009 24.6598 147.411 25.6322 147.418L38.9919 147.485C44.6882 147.505 50.2713 148.563 55.583 150.629L67.5598 155.288ZM82.8683 187.46C82.8925 187.484 82.9167 187.508 82.9409 187.532C83.1371 187.728 83.3347 187.921 83.5349 188.113C83.5925 188.168 83.651 188.221 83.7091 188.276C83.9216 188.476 84.1359 188.674 84.3528 188.869C84.5706 189.064 84.7893 189.259 85.0111 189.449C85.0533 189.486 85.0969 189.521 85.1391 189.557C85.3961 189.776 85.6552 189.992 85.9175 190.204C85.9197 190.205 85.9219 190.207 85.9245 190.209C92.0652 195.156 99.6442 198.151 107.606 198.654C107.661 198.657 107.716 198.661 107.771 198.664C108.072 198.682 108.374 198.695 108.676 198.705C108.752 198.708 108.829 198.712 108.905 198.714C109.27 198.725 109.634 198.731 110 198.731C110.366 198.731 110.73 198.725 111.095 198.714C111.171 198.712 111.248 198.708 111.324 198.705C111.626 198.695 111.928 198.682 112.229 198.664C112.284 198.661 112.339 198.657 112.394 198.654C120.356 198.151 127.934 195.156 134.075 190.209C134.078 190.207 134.08 190.205 134.083 190.204C134.345 189.992 134.604 189.776 134.861 189.557C134.904 189.521 134.947 189.486 134.989 189.449C135.211 189.259 135.429 189.064 135.647 188.869C135.864 188.674 136.078 188.476 136.291 188.276C136.349 188.221 136.407 188.167 136.465 188.113C136.665 187.921 136.863 187.728 137.059 187.532C137.083 187.508 137.108 187.484 137.132 187.46C144.062 180.517 148.354 170.939 148.354 160.377C148.354 152.099 145.659 144.033 140.724 137.43C140.345 137.694 139.95 137.93 139.548 138.153C139.484 138.188 139.418 138.223 139.353 138.258C139.044 138.422 138.729 138.574 138.409 138.714C138.364 138.733 138.32 138.754 138.275 138.773C138.111 138.842 137.946 138.906 137.779 138.969C137.678 139.007 137.575 139.042 137.473 139.078C137.249 139.156 137.023 139.228 136.795 139.293C136.637 139.339 136.478 139.384 136.317 139.424C136.191 139.454 136.066 139.484 135.939 139.511C135.724 139.558 135.507 139.6 135.288 139.636C135.204 139.65 135.12 139.665 135.035 139.677C134.773 139.715 134.508 139.744 134.242 139.767C134.158 139.774 134.075 139.781 133.991 139.786C133.69 139.806 133.388 139.821 133.082 139.821H86.9189C86.6131 139.821 86.3104 139.806 86.0094 139.786C85.9254 139.781 85.8422 139.774 85.7586 139.767C85.4924 139.744 85.2276 139.715 84.9658 139.677C84.8808 139.665 84.7968 139.65 84.7123 139.636C84.4936 139.6 84.2767 139.558 84.0616 139.511C83.9348 139.484 83.8086 139.454 83.6832 139.424C83.5226 139.384 83.3637 139.339 83.2058 139.293C82.9774 139.228 82.7517 139.156 82.5277 139.078C82.4252 139.042 82.3227 139.007 82.2215 138.969C82.0547 138.906 81.8897 138.842 81.7256 138.773C81.6803 138.754 81.6363 138.733 81.5918 138.714C81.2711 138.574 80.9565 138.422 80.6476 138.258C80.5825 138.223 80.5169 138.188 80.4522 138.153C80.0505 137.93 79.6554 137.694 79.2761 137.43C74.3415 144.033 71.6465 152.099 71.6465 160.377C71.6465 170.939 75.9378 180.517 82.8683 187.46ZM178.397 202.061V199.801C178.397 192.335 172.323 186.262 164.858 186.262H144.016C142.639 188.068 141.126 189.746 139.502 191.292C139.487 191.307 139.472 191.321 139.456 191.336C139.232 191.549 139.007 191.76 138.779 191.967C138.706 192.033 138.633 192.098 138.56 192.163C138.376 192.328 138.192 192.494 138.005 192.656C131.109 198.646 122.282 202.466 112.597 203.049C112.542 203.053 112.487 203.057 112.433 203.06C112.103 203.078 111.771 203.093 111.44 203.104C111.359 203.107 111.278 203.111 111.197 203.113C110.799 203.124 110.401 203.131 110 203.131C109.6 203.131 109.201 203.124 108.804 203.113C108.723 203.111 108.642 203.107 108.561 203.104C108.229 203.093 107.898 203.079 107.568 203.06C107.513 203.057 107.459 203.053 107.404 203.049C97.7183 202.466 88.8914 198.646 81.9962 192.656C81.8092 192.494 81.6248 192.328 81.4405 192.163C81.3679 192.097 81.2944 192.033 81.2222 191.967C80.9939 191.76 80.7686 191.549 80.5446 191.336C80.5292 191.322 80.5138 191.307 80.4984 191.292C78.8748 189.746 77.3617 188.068 75.9845 186.262H55.1426C47.6771 186.262 41.6033 192.335 41.6033 199.801V202.061C41.6033 209.526 47.6771 215.6 55.1426 215.6H62.3889H87.5301V204.911C87.5301 203.695 88.5152 202.711 89.7301 202.711C90.9449 202.711 91.9301 203.695 91.9301 204.911V215.6H128.071V204.911C128.071 203.695 129.056 202.711 130.271 202.711C131.486 202.711 132.471 203.695 132.471 204.911V215.6H157.612H164.859C172.324 215.6 178.397 209.526 178.397 202.061ZM217.8 215.6H214.207C212.992 215.6 212.007 216.585 212.007 217.8C212.007 219.015 212.992 220 214.207 220H217.8C219.015 220 220 219.015 220 217.8C220 216.585 219.015 215.6 217.8 215.6ZM75.717 116.847C76.9318 116.847 77.917 115.862 77.917 114.647V113.498C77.917 112.283 76.9318 111.298 75.717 111.298C74.5021 111.298 73.517 112.283 73.517 113.498V114.647C73.517 115.862 74.5021 116.847 75.717 116.847Z" fill="#1C1D21"/>
</g>
<defs>
<clipPath id="clip0_101_522">
<rect width="220" height="220" fill="white"/>
</clipPath>
</defs>
</svg>
