<svg width="220" height="220" viewBox="0 0 220 220" fill="none" xmlns="http://www.w3.org/2000/svg">
<path d="M209.214 71.4877C209.214 59.6077 199.583 49.977 187.703 49.977C179.789 49.977 172.878 54.2538 169.142 60.6192C169.143 60.6184 169.143 60.6175 169.143 60.6166H119.531V89.76H127.966C127.497 90.8332 127.229 92.015 127.21 93.258L126.944 110.634H145.653L145.387 93.258C145.368 92.0045 145.094 90.8147 144.618 89.7345C148.749 89.6082 152.797 88.7168 156.56 87.1165L183.726 114.282C186.267 116.823 190.387 116.823 192.927 114.282C195.468 111.741 195.468 107.622 192.927 105.081L179.01 91.1632C181.669 92.3397 184.609 92.9984 187.703 92.9984C199.583 92.9984 209.214 83.3677 209.214 71.4877Z" fill="#FDDF7F"/>
<path d="M101.278 76.0179H96.627C92.6102 76.0179 89.481 79.5022 89.9117 83.4961L92.421 106.771V126.249C92.421 129.727 95.0461 132.765 98.5177 132.99C102.322 133.236 105.484 130.224 105.484 126.473V106.772L107.993 83.4966C108.424 79.5022 105.295 76.0179 101.278 76.0179Z" fill="#FDDF7F"/>
<path d="M119.532 60.6167H87.7213C82.213 60.6167 77.747 65.0822 77.747 70.591V79.7861C77.747 85.2949 82.2125 89.7605 87.7213 89.7605H90.5875L89.9121 83.4962C89.4813 79.5023 92.6106 76.018 96.6274 76.018H101.279C105.295 76.018 108.425 79.5023 107.994 83.4962L107.319 89.7605H119.532V60.6167H119.532Z" fill="#ECF4F7"/>
<path d="M61.8959 176.929V44.2548C61.8959 38.4243 57.1695 33.6974 51.3386 33.6974C45.5081 33.6974 40.7812 38.4239 40.7812 44.2548V99.8263C40.7812 103.239 40.4354 106.643 39.7494 109.986L23.3339 189.975C20.385 204.343 31.3608 217.8 46.0282 217.8H61.8959V176.929Z" fill="#AAB1BA"/>
<path d="M184.568 163.241C169.502 163.241 157.288 175.454 157.288 190.52C157.288 193.802 157.868 196.947 158.93 199.86H147.019L147.146 208.147C147.227 213.454 142.947 217.8 137.639 217.8H184.567C184.139 217.8 184.991 217.819 184.567 217.8C184.991 217.819 184.14 217.8 184.568 217.8C199.634 217.8 211.847 205.587 211.847 190.52C211.847 175.454 199.634 163.241 184.568 163.241Z" fill="#FDDF7F"/>
<path d="M61.8964 54.131V44.2548C61.8964 38.4243 57.1699 33.6974 51.339 33.6974C45.5086 33.6974 40.7816 38.4239 40.7816 44.2548V54.131H61.8964Z" fill="#FDDF7F"/>
<path d="M145.653 110.634H126.944L125.87 180.809C120.336 178.278 114.281 176.929 108.092 176.929H61.8962V217.8H134.957H137.64C142.947 217.8 147.227 213.454 147.146 208.147L145.653 110.634Z" fill="#83E1E5"/>
<path d="M119.915 7.029C119.915 5.81372 120.9 4.829 122.115 4.829H124.744V2.2C124.744 0.98472 125.729 0 126.944 0C128.159 0 129.144 0.98472 129.144 2.2V4.829H131.773C132.988 4.829 133.973 5.81372 133.973 7.029C133.973 8.24428 132.988 9.229 131.773 9.229H129.144V11.858C129.144 13.0733 128.159 14.058 126.944 14.058C125.729 14.058 124.744 13.0733 124.744 11.858V9.229H122.115C120.9 9.229 119.915 8.24384 119.915 7.029ZM143.339 32.3814H145.968V35.0099C145.968 36.2252 146.953 37.2099 148.168 37.2099C149.383 37.2099 150.368 36.2252 150.368 35.0099V32.3814H152.997C154.212 32.3814 155.197 31.3966 155.197 30.1814C155.197 28.9661 154.212 27.9814 152.997 27.9814H150.368V25.3524C150.368 24.1371 149.383 23.1524 148.168 23.1524C146.953 23.1524 145.968 24.1371 145.968 25.3524V27.9814H143.339C142.124 27.9814 141.139 28.9661 141.139 30.1814C141.139 31.3966 142.124 32.3814 143.339 32.3814ZM100.891 32.3814H103.52V35.0099C103.52 36.2252 104.505 37.2099 105.72 37.2099C106.934 37.2099 107.92 36.2252 107.92 35.0099V32.3814H110.549C111.763 32.3814 112.749 31.3966 112.749 30.1814C112.749 28.9661 111.763 27.9814 110.549 27.9814H107.92V25.3524C107.92 24.1371 106.934 23.1524 105.72 23.1524C104.505 23.1524 103.52 24.1371 103.52 25.3524V27.9814H100.891C99.6757 27.9814 98.6905 28.9661 98.6905 30.1814C98.6905 31.3966 99.6757 32.3814 100.891 32.3814ZM214.048 190.52C214.048 206.775 200.823 220 184.568 220H137.639H134.957H70.7531C69.5383 220 68.5531 219.015 68.5531 217.8C68.5531 216.585 69.5383 215.6 70.7531 215.6H125.809C125.799 215.589 125.792 215.577 125.783 215.565C125.598 215.332 125.424 215.093 125.258 214.849C125.235 214.816 125.212 214.783 125.19 214.75C125.027 214.505 124.875 214.254 124.732 213.998C124.705 213.95 124.678 213.902 124.652 213.854C124.514 213.599 124.385 213.34 124.267 213.076C124.247 213.031 124.229 212.987 124.209 212.942C124.09 212.666 123.978 212.387 123.88 212.102C123.877 212.091 123.874 212.081 123.87 212.072C123.775 211.79 123.692 211.504 123.618 211.215C123.608 211.174 123.595 211.132 123.585 211.09C123.516 210.806 123.459 210.519 123.411 210.229C123.402 210.174 123.393 210.12 123.385 210.065C123.342 209.775 123.307 209.483 123.285 209.188C123.282 209.142 123.28 209.095 123.277 209.048C123.257 208.738 123.246 208.427 123.251 208.113L123.647 182.239C118.692 180.175 113.466 179.129 108.091 179.129H79.8057C78.5909 179.129 77.6057 178.145 77.6057 176.929C77.6057 175.714 78.5909 174.729 79.8057 174.729H108.091C113.469 174.729 118.711 175.676 123.719 177.542L125.01 93.2246C125.017 92.7969 125.05 92.3754 125.103 91.96H119.535C119.534 91.96 119.533 91.9604 119.531 91.9604H109.293L107.684 106.89V126.473C107.684 128.877 106.677 131.199 104.923 132.844C103.286 134.378 101.188 135.205 98.962 135.205C98.7675 135.205 98.5717 135.198 98.3755 135.185C93.8025 134.889 90.2205 130.964 90.2205 126.248V106.889L88.611 91.96H87.7209C81.0082 91.96 75.5469 86.4987 75.5469 79.7856V70.5905C75.5469 63.8774 81.0082 58.4162 87.7209 58.4162H119.531H167.934C172.183 52.0106 179.456 47.7765 187.703 47.7765C200.777 47.7765 211.414 58.4131 211.414 71.4872C211.414 84.5614 200.777 95.1984 187.703 95.1984C187.162 95.1984 186.628 95.1738 186.096 95.1377L194.483 103.525C197.877 106.92 197.877 112.443 194.483 115.837C192.839 117.482 190.652 118.387 188.326 118.387C186.001 118.387 183.814 117.482 182.17 115.837L146.719 80.3858C145.859 79.5269 145.859 78.1339 146.719 77.275C147.578 76.4157 148.971 76.4157 149.83 77.275L185.281 112.726C186.095 113.54 187.176 113.987 188.326 113.987C189.477 113.987 190.558 113.539 191.371 112.726C193.05 111.047 193.05 108.315 191.371 106.636L177.89 93.1542C177.845 93.1093 177.812 93.0578 177.772 93.0103C169.646 89.2456 163.992 81.0163 163.992 71.4868C163.992 68.4266 164.581 65.5037 165.641 62.8157H121.731V87.56H126.653C128.643 84.2987 132.235 82.1075 136.298 82.1075C142.428 82.1075 147.492 87.0945 147.586 93.2246L149.184 197.66H155.966C155.395 195.373 155.087 192.982 155.087 190.52C155.087 174.265 168.312 161.04 184.567 161.04C200.823 161.04 214.048 174.265 214.048 190.52ZM168.392 71.4877C168.392 82.1357 177.055 90.7988 187.703 90.7988C198.351 90.7988 207.014 82.1361 207.014 71.4877C207.014 60.8392 198.351 52.177 187.703 52.177C177.055 52.177 168.392 60.8392 168.392 71.4877ZM105.13 89.5264C105.13 89.5259 105.13 89.5255 105.13 89.5246L105.806 83.2603C105.946 81.9579 105.541 80.7039 104.666 79.7293C103.791 78.7547 102.588 78.2179 101.278 78.2179H96.6265C96.4628 78.2179 96.3009 78.2263 96.1407 78.243C95.6607 78.2927 95.1995 78.4164 94.7692 78.6082C94.7648 78.61 94.7609 78.6126 94.7565 78.6148C94.1875 78.8709 93.6723 79.2458 93.238 79.7298C93.1285 79.8516 93.0268 79.9775 92.9322 80.1077C92.2705 81.0185 91.9761 82.1212 92.0989 83.2608L92.7743 89.525C92.7743 89.5255 92.7743 89.5259 92.7743 89.5268L94.6082 106.536C94.6165 106.614 94.6209 106.693 94.6209 106.772V126.249C94.6209 128.652 96.395 130.648 98.6601 130.795C99.8741 130.867 101.031 130.461 101.914 129.634C102.797 128.806 103.284 127.683 103.284 126.473V106.772C103.284 106.693 103.289 106.614 103.297 106.536L105.13 89.5264ZM109.768 87.5604H117.331V62.8166H87.7209C83.4344 62.8166 79.9469 66.304 79.9469 70.591V79.7861C79.9469 84.073 83.4344 87.5604 87.7209 87.5604H88.1367L87.7239 83.732C87.452 81.2086 88.2687 78.6782 89.9644 76.7897C91.6602 74.9012 94.0885 73.8179 96.6269 73.8179H101.278C103.817 73.8179 106.245 74.9012 107.941 76.7897C109.636 78.6782 110.453 81.2086 110.181 83.732L109.768 87.5604ZM129.41 93.2914L129.178 108.434H143.419L143.187 93.2914C143.13 89.551 140.04 86.5075 136.299 86.5075C132.557 86.5075 129.467 89.551 129.41 93.2914ZM134.957 215.6H137.639C137.886 215.6 138.131 215.588 138.373 215.564C140.067 215.396 141.635 214.65 142.846 213.42C144.23 212.014 144.976 210.154 144.946 208.181L144.819 199.894C144.819 199.893 144.819 199.893 144.819 199.892L143.486 112.834H129.11L127.65 208.18C127.643 208.674 127.684 209.16 127.771 209.634C128.033 211.055 128.712 212.365 129.75 213.419C130.961 214.65 132.528 215.396 134.223 215.563C134.466 215.588 134.711 215.6 134.957 215.6ZM169.097 215.6C166.896 214.237 164.89 212.592 163.123 210.717C163.084 210.676 163.044 210.635 163.006 210.594C162.804 210.378 162.608 210.158 162.413 209.936C162.324 209.834 162.235 209.732 162.147 209.629C161.973 209.425 161.801 209.22 161.632 209.011C161.53 208.886 161.432 208.758 161.332 208.63C161.175 208.428 161.016 208.227 160.863 208.021C160.827 207.973 160.794 207.922 160.758 207.874C160.427 207.42 160.111 206.956 159.805 206.484C159.708 206.335 159.611 206.187 159.517 206.036C159.382 205.819 159.253 205.6 159.123 205.38C159.043 205.242 158.963 205.103 158.884 204.964C158.748 204.724 158.615 204.483 158.487 204.239C158.435 204.142 158.386 204.043 158.335 203.944C158.018 203.327 157.717 202.701 157.443 202.06H149.253L149.346 208.113C149.35 208.428 149.339 208.74 149.32 209.05C149.317 209.096 149.316 209.142 149.312 209.188C149.29 209.483 149.255 209.775 149.212 210.066C149.203 210.12 149.195 210.174 149.186 210.228C149.138 210.519 149.081 210.806 149.011 211.09C149.001 211.131 148.99 211.172 148.979 211.212C148.905 211.503 148.821 211.791 148.725 212.075C148.722 212.084 148.72 212.091 148.717 212.1C148.619 212.386 148.507 212.667 148.387 212.944C148.368 212.987 148.35 213.031 148.331 213.074C148.212 213.339 148.083 213.599 147.944 213.855C147.918 213.902 147.892 213.95 147.865 213.997C147.722 214.253 147.57 214.504 147.407 214.75C147.385 214.782 147.362 214.815 147.34 214.847C147.173 215.092 146.999 215.332 146.812 215.565C146.804 215.576 146.796 215.588 146.787 215.6L169.097 215.6ZM209.647 190.52C209.647 176.691 198.397 165.44 184.568 165.44C170.739 165.44 159.488 176.691 159.488 190.52C159.488 193.508 160.015 196.373 160.977 199.033C160.988 199.058 161.002 199.081 161.011 199.107C161.231 199.709 161.473 200.299 161.735 200.877C161.746 200.901 161.757 200.925 161.767 200.948C161.89 201.216 162.018 201.481 162.149 201.744C162.175 201.795 162.201 201.846 162.227 201.897C162.615 202.657 163.041 203.392 163.499 204.101C163.549 204.178 163.597 204.256 163.648 204.333C163.777 204.527 163.91 204.718 164.044 204.909C164.114 205.009 164.184 205.108 164.256 205.207C164.393 205.396 164.532 205.583 164.674 205.769C164.737 205.85 164.801 205.929 164.864 206.01C168.878 211.1 174.774 214.515 181.298 215.38C181.456 215.401 181.614 215.423 181.773 215.441C181.952 215.461 182.132 215.478 182.312 215.494C182.54 215.515 182.77 215.533 183 215.547C183.14 215.556 183.28 215.565 183.421 215.572C183.801 215.589 184.183 215.601 184.567 215.601C198.397 215.6 209.647 204.35 209.647 190.52ZM64.096 44.2548V217.8C64.096 219.015 63.1108 220 61.896 220H49.9988H46.0282H16.8637C15.6489 220 14.6637 219.015 14.6637 217.8C14.6637 216.585 15.6489 215.6 16.8637 215.6H31.7458C29.7526 214.239 27.9381 212.588 26.3708 210.666C21.5325 204.734 19.6401 197.032 21.1792 189.533L37.5952 109.544C38.2499 106.353 38.5821 103.083 38.5821 99.8263V44.2548C38.5821 37.2205 44.3047 31.4974 51.3395 31.4974C58.3742 31.4974 64.096 37.2205 64.096 44.2548ZM42.9817 44.2548V51.931H59.6964V44.2548C59.6964 39.6462 55.9471 35.8974 51.339 35.8974C46.7309 35.8974 42.9817 39.6462 42.9817 44.2548ZM59.6959 215.6V56.331H42.9817V99.8263C42.9817 103.38 42.6195 106.947 41.905 110.428L25.489 190.417C24.217 196.616 25.7812 202.983 29.7799 207.885C33.7791 212.788 39.701 215.6 46.0282 215.6H49.9988H59.6959ZM70.7531 179.129H72.9897C74.2045 179.129 75.1897 178.145 75.1897 176.929C75.1897 175.714 74.2045 174.729 72.9897 174.729H70.7531C69.5383 174.729 68.5531 175.714 68.5531 176.929C68.5531 178.145 69.5383 179.129 70.7531 179.129ZM9.45015 215.6H8.15215C6.93731 215.6 5.95215 216.585 5.95215 217.8C5.95215 219.015 6.93731 220 8.15215 220H9.45015C10.665 220 11.6501 219.015 11.6501 217.8C11.6501 216.585 10.665 215.6 9.45015 215.6Z" fill="#1C1D21"/>
</svg>
